<?xml version="1.0" encoding="utf-8"?>
<!-- Uploaded to: SVG Repo, www.svgrepo.com, Generator: SVG Repo Mixer Tools -->
<svg fill="#000000"  viewBox="0 0 32 32" version="1.1" xmlns="http://www.w3.org/2000/svg">
<title>arrow-down-left</title>
<path d="M26.785 5.217c-0.227-0.226-0.539-0.366-0.885-0.366s-0.658 0.14-0.885 0.366v0l-17.665 17.665v-11.124c0-0.69-0.56-1.25-1.25-1.25s-1.25 0.56-1.25 1.25v0 14.143c0.002 0.166 0.036 0.324 0.096 0.468l-0.003-0.008 0.002 0.019 0.003 0.005 0.011 0.018c0.061 0.132 0.138 0.245 0.232 0.343l-0-0c0.029 0.029 0.059 0.057 0.091 0.083l0.002 0.002c0.076 0.067 0.162 0.126 0.255 0.174l0.007 0.003c0.031 0.017 0.070 0.036 0.11 0.053l0.008 0.003c0.129 0.053 0.279 0.085 0.436 0.088l0.001 0h14.142c0.69 0 1.25-0.56 1.25-1.25s-0.56-1.25-1.25-1.25v0h-11.124l17.667-17.666c0.225-0.227 0.365-0.539 0.365-0.884s-0.139-0.657-0.365-0.884l0 0z"></path>
</svg>