<?xml version="1.0" encoding="utf-8"?>
<!-- Uploaded to: SVG Repo, www.svgrepo.com, Generator: SVG Repo Mixer Tools -->
<svg fill="#000000"  viewBox="0 0 32 32" version="1.1" xmlns="http://www.w3.org/2000/svg">
<title>arrow-right</title>
<path d="M31.218 15.838c-0.007-0.058-0.018-0.109-0.031-0.159l0.002 0.008c-0.051-0.223-0.158-0.416-0.305-0.571l0 0.001-10-10c-0.226-0.227-0.539-0.367-0.885-0.367-0.691 0-1.251 0.56-1.251 1.251 0 0.345 0.14 0.658 0.366 0.884v0l7.867 7.866h-24.982c-0.69 0-1.25 0.56-1.25 1.25s0.56 1.25 1.25 1.25v0h24.981l-7.866 7.865c-0.226 0.226-0.366 0.539-0.366 0.884 0 0.691 0.56 1.251 1.251 1.251 0.345 0 0.658-0.14 0.884-0.366l10-10.001c0.012-0.012 0.016-0.029 0.027-0.041 0.099-0.103 0.18-0.223 0.239-0.356l0.003-0.008 0-0.003c0.051-0.13 0.080-0.28 0.080-0.438 0-0.071-0.006-0.14-0.017-0.208l0.001 0.007z"></path>
</svg>